<svg id="SvgjsSvg1001" width="288" height="288" xmlns="http://www.w3.org/2000/svg" version="1.1" xmlns:xlink="http://www.w3.org/1999/xlink" xmlns:svgjs="http://svgjs.com/svgjs"><defs id="SvgjsDefs1002"></defs><g id="SvgjsG1008" transform="matrix(1,0,0,1,0,0)"><svg xmlns="http://www.w3.org/2000/svg" viewBox="362 142 4458 4308" width="288" height="288"><path d="M495 4427 c-70 -33 -109 -81 -124 -153 -9 -45 -11 -506 -9 -2009 l3 -1950 21 -45 c25 -54 67 -92 126 -114 39 -15 153 -16 1218 -14 1099 3 1177 4 1207 21 44 24 81 64 104 112 18 39 19 105 19 2021 l0 1982 -28 53 c-20 39 -41 62 -77 84 l-48 30 -1181 2 -1181 3 -50 -23z m2351 -118 c26 -12 53 -36 66 -57 22 -35 23 -47 23 -202 l0 -165 -1222 -3 -1223 -2 0 161 c0 129 3 168 16 196 18 36 65 78 99 86 11 2 510 5 1109 6 1083 1 1090 1 1132 -20z m89 -2014 l0 -1460 -1222 -3 -1223 -2 0 1465 0 1465 1223 -2 1222 -3 0 -1460z m0 -1757 c0 -153 -2 -169 -21 -194 -29 -40 -65 -64 -110 -74 -22 -6 -497 -10 -1095 -10 -1181 0 -1133 -3 -1186 67 -28 36 -28 38 -31 210 l-4 173 1224 -2 1223 -3 0 -167zM1440 4105 l0 -45 275 0 275 0 0 45 0 45 -275 0 -275 0 0 -45z
M3110 4390 l0 -60 508 -2 507 -3 0 -1220 0 -1220 -507 -3 -508 -2 0 -60 0 -60 783 2 783 3 52 39 c35 27 57 54 71 87 21 47 21 60 21 1217 l0 1168 -27 55 c-21 40 -40 61 -77 84 l-49 30 -779 3 -778 2 0 -60z m1513 -90 c72 -49 67 33 67 -1195 0 -1228 5 -1146 -67 -1195 -35 -24 -42 -25 -202 -25 l-166 0 -3 1223 -2 1223 168 -3 c161 -3 170 -4 205 -28z
M4284 1613 c-10 -10 -47 -42 -82 -71 -52 -45 -62 -59 -62 -85 1 -45 30 -77 72 -77 19 0 39 5 46 12 32 32 -52 -205 -110 -312 -106 -195 -301 -368 -515 -459 -85 -37 -222 -76 -205 -59 7 7 12 27 12 46 0 41 -32 71 -76 72 -27 0 -42 -12 -108 -87 -97 -110 -100 -132 -25 -195 29 -24 69 -58 89 -75 45 -40 87 -43 118 -10 23 24 32 97 12 97 -5 0 -10 5 -10 10 0 6 11 10 25 10 29 0 118 22 200 51 252 87 475 281 617 539 39 70 95 235 105 307 5 38 23 72 23 44 0 -6 16 -11 35 -11 87 0 113 70 53 140 -18 20 -50 58 -71 83 -34 43 -42 47 -81 47 -26 0 -50 -7 -62 -17z" fill="#0c5271" class="color000 svgShape"></path></svg></g></svg>